<svg xmlns="http://www.w3.org/2000/svg" width="24" height="40" viewBox="0 0 24 40" fill="none">
  <path d="M22.9057 13.457C23.1528 13.1406 23.2794 12.7835 23.2794 12.3948C23.2794 11.3928 22.4711 10.5762 21.4767 10.5762C20.9334 10.5762 20.4659 10.8097 20.128 11.2497L17.6406 14.575L19.8467 17.5161L22.9057 13.4555V13.457Z" fill="#0071B9"/>
  <path d="M19.8287 22.4712L17.6211 25.4138L20.1681 28.81C20.5283 29.3012 21.0046 29.5407 21.6239 29.5407C22.5751 29.5407 23.3477 28.7497 23.3477 27.7764C23.3477 27.3485 23.2137 26.9401 22.9711 26.6297L19.8287 22.4727V22.4712Z" fill="#0071B9"/>
  <path d="M17.9696 20.0045L15.7784 17.0619L3.82805 1.17652C3.50949 0.753129 3.00486 0.5 2.47641 0.5C1.48204 0.5 0.673741 1.31514 0.673741 2.31861C0.673741 2.70584 0.800275 3.06444 1.05036 3.38387L13.5857 20.003L1.02207 36.592C0.782411 36.8994 0.648438 37.3062 0.648438 37.7356C0.648438 38.709 1.42101 39.5 2.37221 39.5C2.97657 39.5 3.43804 39.2695 3.82507 38.7738L15.7769 22.9456L17.9681 20.003L17.9696 20.0045Z" fill="#0071B9"/>
</svg>
